# xmcd CD database file
#
# Track frame offsets:
#	182
#	13872
#	26267
#	36215
#	52917
#	63822
#	76292
#	87622
#	98635
#	109360
#	120985
#	133275
#	144485
#	159910
#	169810
#	183052
#	198200
#	212070
#	223322
#	234685
#	245117
#	258775
#	264855
#	280080
#	289047
#
# Disc length: 4022 seconds
#
# Revision: 4
# Processed by: cddbd v1.5.1PL2 Copyright (c) Steve Scherf et al.
# Submitted via: CDex 1.50
#
DISCID=5f0fb419
DTITLE=Blues - 25 Hits and Classics - Vol. 4
DYEAR=1900
DGENRE=Blues
TTITLE0=Muddy Waters - I Got A Rich Man's Woman
TTITLE1=Little Walter - Juke
TTITLE2=Howlin' Wolf - Down In The Bottom
TTITLE3=John Lee Hooker - Process
TTITLE4=Ray Charles - I Wonder Who's Kissing Her Now
TTITLE5=Sonny Boy Williamson - Cool Disposition
TTITLE6=Billie Holiday - Fooling Myself
TTITLE7=B.B. King - Catfish Blues
TTITLE8=Howlin' Wolf - Who's Been Talking
TTITLE9=Billie Holiday - I Got It Bad And That Ain't Good
TTITLE10=John Lee Hooker - Drug Store Woman
TTITLE11=Elmore James - Look On Yonder Wall
TTITLE12=Howlin' Wolf - Goin' Down Slow
TTITLE13=Leadbelly - How Long
TTITLE14=John Lee Hooker - Baby Lee
TTITLE15=Muddy Waters - Iodine In My Coffee
TTITLE16=Little Walter - You're So Fine
TTITLE17=John Lee Hooker - Boom Boom
TTITLE18=Billie Holiday - I Love You Porgy
TTITLE19=Muddy Waters - Diamonds At Your Feet
TTITLE20=Little Walter - Can't Hold Out Much Longer
TTITLE21=Leadbelly - Big Fat Woman
TTITLE22=Howlin' Wolf - Commit A Crime
TTITLE23=Billie Holiday - Please Dont Talk About Me When I'm Gone
TTITLE24=B.B. King - Please Love Me
EXTD=
EXTT0=
EXTT1=
EXTT2=
EXTT3=
EXTT4=
EXTT5=
EXTT6=
EXTT7=
EXTT8=
EXTT9=
EXTT10=
EXTT11=
EXTT12=
EXTT13=
EXTT14=
EXTT15=
EXTT16=
EXTT17=
EXTT18=
EXTT19=
EXTT20=
EXTT21=
EXTT22=
EXTT23=
EXTT24=
PLAYORDER=
